<?xml version="1.0" encoding="UTF-8"?>
<svg width="40px" height="31px" viewBox="0 0 40 31" version="1.1" xmlns="http://www.w3.org/2000/svg" xmlns:xlink="http://www.w3.org/1999/xlink">
    <!-- Generator: Sketch 47.1 (45422) - http://www.bohemiancoding.com/sketch -->
    <title>delete-text-icon</title>
    <desc>Created with Sketch.</desc>
    <defs></defs>
    <g id="Final" stroke="none" stroke-width="1" fill="none" fill-rule="evenodd">
        <g id="Service-Mode-/-Login-/-Password" transform="translate(-934.000000, -447.000000)">
            <g id="Elements/-Keyboard-/-Numbers" transform="translate(100.000000, 232.000000)">
                <g id="Key-Letter-Copy-14" transform="translate(784.000000, 185.000000)">
                    <g id="delete-text-icon" transform="translate(40.000000, 15.826087)">
                        <path d="M46.6666667,14.673913 L21.8333333,14.673913 C20.6666667,14.673913 19.6666667,15.173913 19,16.173913 L10,29.673913 L19,43.173913 C19.6666667,44.0072464 20.6666667,44.673913 21.8333333,44.673913 L46.6666667,44.673913 C48.5,44.673913 50,43.173913 50,41.3405797 L50,18.0072464 C50,16.173913 48.5,14.673913 46.6666667,14.673913 L46.6666667,14.673913 Z M41.6666667,35.673913 L39.3333333,38.0072464 L33.3333333,32.0072464 L27.3333333,38.0072464 L25,35.673913 L31,29.673913 L25,23.673913 L27.3333333,21.3405797 L33.3333333,27.3405797 L39.3333333,21.3405797 L41.6666667,23.673913 L35.6666667,29.673913 L41.6666667,35.673913 L41.6666667,35.673913 Z" id="delete" fill="#FFFFFF"></path>
                        <rect id="Rectangle-6" x="0" y="0" width="60" height="59.3478261"></rect>
                    </g>
                </g>
            </g>
        </g>
    </g>
</svg>