<svg xmlns="http://www.w3.org/2000/svg" width="64" height="64" viewBox="0 0 64 64">
    <g fill="none" fill-rule="evenodd">
        <path d="M0 0h64v64H0z"/>
        <path fill="#010101" d="M24.616 45.181V38.92c.504.05 1.008.05 1.513.05h1.108c.706-.05 1.36-.05 2.066-.05 1.764 0 3.175.201 4.637.555.655.202 1.362.253 2.017.253 1.713 0 3.175-.607 3.93-1.616.455-.606.858-1.617.455-3.08-.908-3.08-5.595-3.587-7.006-3.688-.908-.05-2.067-.253-2.57-1.01-.404-.555-.303-1.313-.253-1.616 0 0 0-.05.101-.1h21.471V45.18H24.616zm-5.292-9.696c-.1-.05-.2-.152-.252-.202l-.907-.556c-2.52-1.616-4.486-2.828-6.402-3.13V21.191c2.37.605 4.184 1.06 5.95 1.363l.452-.05c1.16-.353 2.42-.909 3.78-1.415 2.722-1.06 5.847-2.323 7.56-2.323.253 0 .454 0 .605.051 1.915.606 7.862 4.798 9.476 6.06.604.455 1.16 1.212 1.612 1.87H30.412l-.402.1c-.606.304-.958.707-1.11 1.212-.252.81-.303 2.121.454 3.183.756 1.06 2.067 1.716 3.931 1.817 2.37.152 4.94.96 5.394 2.374.201.656.15 1.162-.152 1.516-.403.555-1.36.91-2.52.91-.504 0-1.059-.052-1.563-.203-1.612-.455-3.175-.658-5.09-.658-.757 0-1.462.051-2.217.051-5.04.303-7.006-1.06-7.813-1.565zm23.991-8.637c-.454-.808-1.462-2.374-2.62-3.282-1.16-.909-7.662-5.657-10.08-6.414a3.886 3.886 0 0 0-1.11-.153c-2.067 0-5.19 1.263-8.215 2.425-1.26.505-2.47.96-3.478 1.313-1.814-.354-3.729-.808-6.3-1.515L10 18.767v14.441c1.763 0 4.587 1.317 7.258 3.035l.907.554c.051.051.1.102.202.153.654.454 1.915 1.312 4.485 1.767v7.373l.011.91H54V26.847H43.315z"/>
        <path fill="#FFCD00" fill-rule="nonzero" d="M24.616 45.181V38.92c.504.05 1.008.05 1.513.05h1.108c.706-.05 1.36-.05 2.066-.05 1.764 0 3.175.201 4.637.555.655.202 1.362.253 2.017.253 1.713 0 3.175-.607 3.93-1.616.455-.606.858-1.617.455-3.08-.908-3.08-5.595-3.587-7.006-3.688-.908-.05-2.067-.253-2.57-1.01-.404-.555-.303-1.313-.253-1.616 0 0 0-.05.101-.1h21.471V45.18H24.616z"/>
        <path fill="#231F20" fill-rule="nonzero" d="M15 41h42v2H15z"/>
    </g>
</svg>
