<svg xmlns="http://www.w3.org/2000/svg" width="64" height="64" viewBox="0 0 64 64">
    <g fill="none" fill-rule="evenodd">
        <path d="M0 0h64v64H0z"/>
        <path fill="#010101" d="M24.616 45.182V38.92c.504.05 1.008.05 1.513.05h1.108c.706-.05 1.36-.05 2.066-.05 1.764 0 3.175.201 4.637.555.655.202 1.362.253 2.017.253 1.713 0 3.175-.607 3.93-1.616.455-.606.858-1.617.455-3.081-.908-3.08-5.595-3.586-7.006-3.687-.908-.051-2.067-.253-2.571-1.01-.403-.555-.302-1.313-.252-1.616 0 0 0-.051.101-.101h21.471v16.565H24.616zm-5.292-9.696c-.101-.051-.201-.152-.252-.202l-.907-.556c-2.521-1.616-4.486-2.828-6.402-3.131V21.193c2.37.605 4.184 1.06 5.949 1.363l.453-.05c1.159-.353 2.419-.909 3.78-1.415 2.722-1.06 5.847-2.323 7.56-2.323.253 0 .454 0 .605.051 1.915.606 7.862 4.798 9.476 6.06.604.455 1.159 1.212 1.612 1.869H30.412l-.402.101c-.606.304-.958.707-1.11 1.212-.252.809-.303 2.121.454 3.183.756 1.06 2.067 1.716 3.931 1.817 2.369.152 4.939.96 5.394 2.374.201.656.15 1.162-.152 1.516-.403.555-1.361.909-2.52.909-.504 0-1.059-.051-1.563-.202-1.612-.455-3.175-.658-5.09-.658-.757 0-1.462.051-2.217.051-5.041.303-7.006-1.06-7.813-1.565zm23.991-8.637c-.454-.808-1.462-2.374-2.621-3.282-1.159-.909-7.661-5.657-10.08-6.414A3.886 3.886 0 0 0 29.505 17c-2.067 0-5.191 1.263-8.215 2.425-1.26.505-2.47.959-3.478 1.313-1.814-.354-3.729-.808-6.3-1.515L10 18.768v14.441c1.763 0 4.587 1.317 7.258 3.035l.907.554c.051.051.1.102.202.153.654.454 1.915 1.312 4.485 1.767v7.373l.011.909H54V26.849H43.315z"/>
        <path fill="#FFCD00" fill-rule="nonzero" d="M25 45.565v-6.262c.504.05 1.008.05 1.513.05h1.108c.706-.05 1.36-.05 2.066-.05 1.764 0 3.175.201 4.637.555.655.202 1.362.253 2.017.253 1.713 0 3.175-.607 3.93-1.616.455-.606.858-1.617.455-3.081-.908-3.08-5.595-3.586-7.006-3.687-.908-.051-2.067-.253-2.571-1.01-.403-.555-.302-1.313-.252-1.616 0 0 0-.051.101-.101h21.471v16.565H25z"/>
        <path fill="#231F20" d="M43.504 39.326a.615.615 0 0 1 .04-.617c.668-.95.673-2.277.012-3.315-.167-.28-.1-.635.15-.803.25-.168.593-.089.776.18.935 1.468.928 3.344-.017 4.687a.518.518 0 0 1-.455.219.605.605 0 0 1-.506-.35zm3.174 1.445a.52.52 0 0 1-.481.236.606.606 0 0 1-.491-.338.618.618 0 0 1 .014-.601c1.04-1.691 1.048-3.916.02-5.746a.631.631 0 0 1-.05-.63.522.522 0 0 1 .51-.292.61.61 0 0 1 .503.37c1.252 2.23 1.243 4.94-.025 7.001zm2.315-8.067c1.61 3.024 1.596 6.633-.034 9.442a.521.521 0 0 1-.49.25.607.607 0 0 1-.485-.332.62.62 0 0 1 .003-.593c1.42-2.45 1.432-5.598.029-8.237a.627.627 0 0 1-.03-.623c.102-.19.3-.297.512-.278.213.02.404.163.495.371z"/>
    </g>
</svg>
