<svg xmlns="http://www.w3.org/2000/svg" width="64" height="64" viewBox="0 0 64 64">
    <g fill="none" fill-rule="evenodd">
        <path d="M0 0h64v64H0z"/>
        <path fill="#231F20" d="M44.51 11H19.589C16.522 11 14 13.529 14 16.604c0 3.076 2.522 5.605 5.588 5.605h3.462v.992c-.742.446-2.176 1.339-3.017 2.38-.84 1.19-5.143 7.143-5.835 9.374-.593 1.885.742 5.158 2.077 8.63.445 1.141.89 2.231 1.187 3.174-.198 1.124-.844 3.538-1.938 7.241h13.509v-.893c0-1.586 1.088-3.373 2.67-5.802l.495-.794c.049-.05.049-.099.099-.198.346-.497.94-1.339 1.335-2.877H41.5l-.005-.893V22.259h2.917c3.066 0 5.588-2.53 5.588-5.605C50 13.579 47.577 11 44.51 11zM33.04 31.434c-.693 2.529-.594 4.712-.544 6.745.198 4.612-1.04 6.398-1.533 7.141-.05.1-.1.199-.15.248l-.493.794c-1.434 2.331-2.572 4.117-2.868 5.853h-9.396c.544-2.133.94-3.77 1.236-5.406l-.05-.397a64.268 64.268 0 0 0-1.285-3.472c-1.038-2.628-2.423-6.2-2.027-7.439.494-1.786 4.352-7.241 5.489-8.73.395-.496 1.038-1.041 1.632-1.438v9.82l.099.397c.296.546.692.893 1.137 1.042.198.05.544.148 1.038.148.79 0 3.363-.297 3.61-4.216.149-2.181.84-4.512 2.127-4.909.742-.199 1.236-.099 1.582.397.594.744.742 2.133.396 3.422zm6.774 10.216h-5.736c.148-.992.198-2.181.148-3.62-.05-1.934-.148-3.869.495-6.15.395-1.487.395-3.57-.643-4.91-.791-1.041-2.027-1.439-3.511-.991-2.868.842-3.313 5.157-3.412 6.497-.1 1.735-.742 2.579-1.83 2.579-.197 0-.395-.05-.494-.05l-.05-.05V16.456h14.984V41.65h.049zm4.698-21.128h-2.917V14.72H23.05v5.802h-3.462a3.867 3.867 0 0 1-3.857-3.868 3.868 3.868 0 0 1 3.857-3.869H44.51a3.868 3.868 0 0 1 3.857 3.869 3.867 3.867 0 0 1-3.857 3.868z"/>
        <path fill="#FFCD00" fill-rule="nonzero" d="M39.813 41.65h-5.736c.148-.992.198-2.181.148-3.62-.05-1.934-.148-3.869.495-6.15.395-1.487.395-3.57-.643-4.91-.791-1.041-2.027-1.439-3.511-.991-2.868.842-3.313 5.157-3.412 6.497-.1 1.735-.742 2.579-1.83 2.579-.197 0-.395-.05-.494-.05l-.05-.05V16.456h14.984V41.65h.049z"/>
    </g>
</svg>
