<svg xmlns="http://www.w3.org/2000/svg" width="64" height="64" viewBox="0 0 64 64">
    <g fill="none" fill-rule="evenodd">
        <path d="M0 0h64v64H0z"/>
        <path fill="#231F20" d="M49.209 40.832a.906.906 0 0 1 .076-.941 4.386 4.386 0 0 0 .086-5.045.904.904 0 0 1 1.496-1.017 6.197 6.197 0 0 1-.12 7.132.904.904 0 0 1-.735.367.902.902 0 0 1-.803-.496zm5.06 1.962a.906.906 0 0 1-.776.394.903.903 0 0 1-.746-1.393 8.316 8.316 0 0 0 .147-8.742.906.906 0 1 1 1.554-.91 10.127 10.127 0 0 1-.18 10.651zM58.14 30.35a14.234 14.234 0 0 1-.243 14.367.907.907 0 0 1-.79.416.906.906 0 0 1-.755-1.37 12.421 12.421 0 0 0 .21-12.534.905.905 0 1 1 1.578-.879z"/>
        <path fill="#010101" d="M17.616 45.182V38.92c.504.05 1.008.05 1.513.05h1.108c.706-.05 1.36-.05 2.066-.05 1.764 0 3.175.201 4.637.555.655.202 1.362.253 2.017.253 1.713 0 3.175-.607 3.93-1.616.455-.606.858-1.617.455-3.081-.908-3.08-5.595-3.586-7.006-3.687-.908-.051-2.067-.253-2.571-1.01-.403-.555-.302-1.313-.252-1.616 0 0 0-.051.101-.101h21.471v16.565H17.616zm-5.292-9.696c-.101-.051-.201-.152-.252-.202l-.907-.556c-2.521-1.616-4.486-2.828-6.402-3.131V21.193c2.37.605 4.184 1.06 5.949 1.363l.453-.05c1.159-.353 2.419-.909 3.78-1.415 2.722-1.06 5.847-2.323 7.56-2.323.253 0 .454 0 .605.051 1.915.606 7.862 4.798 9.476 6.06.604.455 1.159 1.212 1.612 1.869H23.412l-.402.101c-.606.304-.958.707-1.11 1.212-.252.809-.303 2.121.454 3.183.756 1.06 2.067 1.716 3.931 1.817 2.369.152 4.939.96 5.394 2.374.201.656.15 1.162-.152 1.516-.403.555-1.361.909-2.52.909-.504 0-1.059-.051-1.563-.202-1.612-.455-3.175-.658-5.09-.658-.757 0-1.462.051-2.217.051-5.041.303-7.006-1.06-7.813-1.565zm23.991-8.637c-.454-.808-1.462-2.374-2.621-3.282-1.159-.909-7.661-5.657-10.08-6.414A3.886 3.886 0 0 0 22.505 17c-2.067 0-5.191 1.263-8.215 2.425-1.26.505-2.47.959-3.478 1.313-1.814-.354-3.729-.808-6.3-1.515L3 18.768v14.441c1.763 0 4.587 1.317 7.258 3.035l.907.554c.051.051.1.102.202.153.654.454 1.915 1.312 4.485 1.767v7.373l.011.909H47V26.849H36.315z"/>
        <path fill="#FFCD00" fill-rule="nonzero" d="M18 45.565v-6.262c.504.05 1.008.05 1.513.05h1.108c.706-.05 1.36-.05 2.066-.05 1.764 0 3.175.201 4.637.555.655.202 1.362.253 2.017.253 1.713 0 3.175-.607 3.93-1.616.455-.606.858-1.617.455-3.081-.908-3.08-5.595-3.586-7.006-3.687-.908-.051-2.067-.253-2.571-1.01-.403-.555-.302-1.313-.252-1.616 0 0 0-.051.101-.101h21.471v16.565H18z"/>
    </g>
</svg>
