<svg xmlns="http://www.w3.org/2000/svg" xmlns:xlink="http://www.w3.org/1999/xlink" width="200" height="104" viewBox="0 0 200 104">
    <defs>
        <path id="a" d="M0 0h200v104H0z"/>
        <path id="c" d="M.002.327h39.193v51.529H.002z"/>
    </defs>
    <g fill="none" fill-rule="evenodd">
        <mask id="b" fill="#fff">
            <use xlink:href="#a"/>
        </mask>
        <g mask="url(#b)">
            <path fill="#FE4438" d="M161.275 14.692a8.774 8.774 0 0 1-8.773 8.775c-4.844 0-8.768-3.929-8.768-8.775 0-4.849 3.924-8.776 8.768-8.776a8.773 8.773 0 0 1 8.773 8.776"/>
            <g fill="#004993">
                <path d="M97.562 28.911v3.56c3.598-3.157 8.016-4.845 12.86-4.845 12.804 0 22.459 10.648 22.459 24.766 0 3.011-.383 5.836-1.095 8.433 6.764-16.076 4.115-32.816-7.04-39.391-9.54-5.623-22.557-2.203-32.866 7.477h5.682z"/>
                <path d="M97.957 52.675c0 5.953 3.271 12.358 10.46 12.358 7.461 0 10.803-6.207 10.803-12.358 0-6.068-3.342-12.187-10.804-12.187-6.866 0-10.46 6.13-10.46 12.187M84.754 37.305a51.588 51.588 0 0 0-1.807 2.848c-9.858 16.743-8.881 35.84 1.807 44.222v-47.07zM110.055 77.892c-4.598 0-8.944-1.663-12.493-4.696V88.51c9.619-.186 20.249-6.342 27.963-16.72-3.949 3.871-9.277 6.101-15.47 6.101"/>
            </g>
            <path fill="#004993" d="M145.118 77.055h14.07V28.278h-14.07z"/>
            <g transform="translate(31 26.67)">
                <mask id="d" fill="#fff">
                    <use xlink:href="#c"/>
                </mask>
                <path fill="#004993" d="M39.195 34.184c-2.565 3.628-6.791 5.998-11.569 5.998-7.82 0-14.157-6.343-14.157-14.163 0-7.827 6.337-14.167 14.157-14.167 4.778 0 9.004 2.369 11.569 5.997v-14.3C35.669 1.5 31.005.327 26.392.327 11.346.327 0 11.52 0 26.367 0 40.658 11.39 51.856 25.932 51.856c4.958 0 9.156-1.015 13.21-3.195l.053-.024V34.184z" mask="url(#d)"/>
            </g>
            <path fill="#004993" d="M162.07 72.747h3.526v.659h-1.386v3.699h-.763v-3.699h-1.377zM166.088 72.747h1.073l1.202 3.41h.012l1.171-3.41h1.06v4.358h-.725v-3.363h-.013l-1.207 3.363h-.627l-1.209-3.363h-.011v3.363h-.726z"/>
            <path fill="#FFD000" d="M84.758 88.895c-3.132-2.356-5.525-5.531-7.16-9.256 1.157 5.282 3.562 9.863 7.16 13.207v-3.951zM138.592 41.544c.922 8.933-1.339 19.301-6.998 28.916-8.449 14.341-22.022 22.882-34.038 22.696v5.205c12.223.935 26.436-7.649 35.156-22.454 6.868-11.67 8.707-24.454 5.88-34.363"/>
        </g>
    </g>
</svg>
