<?xml version="1.0" encoding="UTF-8"?>
<svg width="74px" height="74px" viewBox="0 0 74 74" version="1.1" xmlns="http://www.w3.org/2000/svg" xmlns:xlink="http://www.w3.org/1999/xlink">
    <!-- Generator: Sketch 47.1 (45422) - http://www.bohemiancoding.com/sketch -->
    <title>alert-request-icon</title>
    <desc>Created with Sketch.</desc>
    <defs>
        <rect id="path-1" x="0" y="0" width="100" height="100"></rect>
    </defs>
    <g id="Final" stroke="none" stroke-width="1" fill="none" fill-rule="evenodd">
        <g id="Alert-request" transform="translate(-475.000000, -113.000000)">
            <g id="alert-request-icon" transform="translate(462.000000, 100.000000)">
                <mask id="mask-2" fill="white">
                    <use xlink:href="#path-1"></use>
                </mask>
                <g id="Mask"></g>
                <path d="M84,50 C84,68.7474211 68.7474211,84 50,84 C31.2525789,84 16,68.7474211 16,50 C16,31.2525789 31.2525789,16 50,16 C68.7474211,16 84,31.2525789 84,50" id="information" stroke="#FFFFFF" stroke-width="6"></path>
                <path d="M46.8261719,54.2695312 C46.8261719,52.4466055 47.0475238,50.9947971 47.4902344,49.9140625 C47.9329449,48.8333279 48.7434837,47.7688854 49.921875,46.7207031 C51.1002663,45.6725208 51.8847637,44.8196647 52.2753906,44.1621094 C52.6660176,43.504554 52.8613281,42.8112016 52.8613281,42.0820312 C52.8613281,39.8814994 51.8457133,38.78125 49.8144531,38.78125 C48.8509066,38.78125 48.07943,39.077471 47.5,39.6699219 C46.92057,40.2623728 46.6178387,41.0794219 46.5917969,42.1210938 L40.9277344,42.1210938 C40.9537762,39.6341021 41.7578046,37.687507 43.3398438,36.28125 C44.9218829,34.874993 47.0800645,34.171875 49.8144531,34.171875 C52.5748836,34.171875 54.7167893,34.839186 56.2402344,36.1738281 C57.7636795,37.5084702 58.5253906,39.393217 58.5253906,41.828125 C58.5253906,42.9349014 58.2779973,43.9798128 57.7832031,44.9628906 C57.288409,45.9459685 56.4225322,47.0364523 55.1855469,48.234375 L53.6035156,49.7382812 C52.6139273,50.6888068 52.0475268,51.802077 51.9042969,53.078125 L51.8261719,54.2695312 L46.8261719,54.2695312 Z M46.2597656,60.265625 C46.2597656,59.3932248 46.5559866,58.673831 47.1484375,58.1074219 C47.7408884,57.5410128 48.4993443,57.2578125 49.4238281,57.2578125 C50.3483119,57.2578125 51.1067679,57.5410128 51.6992188,58.1074219 C52.2916696,58.673831 52.5878906,59.3932248 52.5878906,60.265625 C52.5878906,61.1250043 52.29818,61.8346326 51.71875,62.3945312 C51.13932,62.9544299 50.3743537,63.234375 49.4238281,63.234375 C48.4733025,63.234375 47.7083362,62.9544299 47.1289062,62.3945312 C46.5494763,61.8346326 46.2597656,61.1250043 46.2597656,60.265625 Z" id="?" fill="#FFFFFF"></path>
            </g>
        </g>
    </g>
</svg>