<svg xmlns="http://www.w3.org/2000/svg" width="168" height="168" viewBox="0 0 168 168">
    <g fill="#000" fill-rule="nonzero">
        <path d="M0 0h8v8H0zM8 0h8v8H8zM16 0h8v8h-8zM24 0h8v8h-8zM32 0h8v8h-8zM40 0h8v8h-8zM48 0h8v8h-8zM72 0h8v8h-8zM88 0h8v8h-8zM96 0h8v8h-8zM112 0h8v8h-8zM120 0h8v8h-8zM128 0h8v8h-8zM136 0h8v8h-8zM144 0h8v8h-8zM152 0h8v8h-8zM160 0h8v8h-8zM0 8h8v8H0zM48 8h8v8h-8zM72 8h8v8h-8zM80 8h8v8h-8zM88 8h8v8h-8zM112 8h8v8h-8zM160 8h8v8h-8zM0 16h8v8H0zM16 16h8v8h-8zM24 16h8v8h-8zM32 16h8v8h-8zM48 16h8v8h-8zM64 16h8v8h-8zM72 16h8v8h-8zM88 16h8v8h-8zM96 16h8v8h-8zM112 16h8v8h-8zM128 16h8v8h-8zM136 16h8v8h-8zM144 16h8v8h-8zM160 16h8v8h-8zM0 24h8v8H0zM16 24h8v8h-8zM24 24h8v8h-8zM32 24h8v8h-8zM48 24h8v8h-8zM72 24h8v8h-8zM88 24h8v8h-8zM112 24h8v8h-8zM128 24h8v8h-8zM136 24h8v8h-8zM144 24h8v8h-8zM160 24h8v8h-8zM0 32h8v8H0zM16 32h8v8h-8zM24 32h8v8h-8zM32 32h8v8h-8zM48 32h8v8h-8zM80 32h8v8h-8zM96 32h8v8h-8zM112 32h8v8h-8zM128 32h8v8h-8zM136 32h8v8h-8zM144 32h8v8h-8zM160 32h8v8h-8zM0 40h8v8H0zM48 40h8v8h-8zM96 40h8v8h-8zM112 40h8v8h-8zM160 40h8v8h-8zM0 48h8v8H0zM8 48h8v8H8zM16 48h8v8h-8zM24 48h8v8h-8zM32 48h8v8h-8zM40 48h8v8h-8zM48 48h8v8h-8zM64 48h8v8h-8zM80 48h8v8h-8zM96 48h8v8h-8zM112 48h8v8h-8zM120 48h8v8h-8zM128 48h8v8h-8zM136 48h8v8h-8zM144 48h8v8h-8zM152 48h8v8h-8zM160 48h8v8h-8zM64 56h8v8h-8zM72 56h8v8h-8zM88 56h8v8h-8zM96 56h8v8h-8zM0 64h8v8H0zM8 64h8v8H8zM16 64h8v8h-8zM32 64h8v8h-8zM40 64h8v8h-8zM48 64h8v8h-8zM56 64h8v8h-8zM64 64h8v8h-8zM72 64h8v8h-8zM80 64h8v8h-8zM88 64h8v8h-8zM104 64h8v8h-8zM112 64h8v8h-8zM144 64h8v8h-8zM0 72h8v8H0zM8 72h8v8H8zM16 72h8v8h-8zM72 72h8v8h-8zM80 72h8v8h-8zM112 72h8v8h-8zM152 72h8v8h-8zM160 72h8v8h-8zM16 80h8v8h-8zM32 80h8v8h-8zM48 80h8v8h-8zM56 80h8v8h-8zM96 80h8v8h-8zM128 80h8v8h-8zM136 80h8v8h-8zM144 80h8v8h-8zM152 80h8v8h-8zM160 80h8v8h-8zM0 88h8v8H0zM16 88h8v8h-8zM24 88h8v8h-8zM32 88h8v8h-8zM40 88h8v8h-8zM64 88h8v8h-8zM80 88h8v8h-8zM112 88h8v8h-8zM152 88h8v8h-8zM0 96h8v8H0zM8 96h8v8H8zM16 96h8v8h-8zM24 96h8v8h-8zM48 96h8v8h-8zM64 96h8v8h-8zM72 96h8v8h-8zM80 96h8v8h-8zM96 96h8v8h-8zM112 96h8v8h-8zM128 96h8v8h-8zM64 104h8v8h-8zM88 104h8v8h-8zM104 104h8v8h-8zM120 104h8v8h-8zM144 104h8v8h-8zM152 104h8v8h-8zM0 112h8v8H0zM8 112h8v8H8zM16 112h8v8h-8zM24 112h8v8h-8zM32 112h8v8h-8zM40 112h8v8h-8zM48 112h8v8h-8zM64 112h8v8h-8zM72 112h8v8h-8zM88 112h8v8h-8zM104 112h8v8h-8zM112 112h8v8h-8zM120 112h8v8h-8zM144 112h8v8h-8zM152 112h8v8h-8zM160 112h8v8h-8zM0 120h8v8H0zM48 120h8v8h-8zM64 120h8v8h-8zM72 120h8v8h-8zM80 120h8v8h-8zM88 120h8v8h-8zM96 120h8v8h-8zM104 120h8v8h-8zM120 120h8v8h-8zM128 120h8v8h-8zM0 128h8v8H0zM16 128h8v8h-8zM24 128h8v8h-8zM32 128h8v8h-8zM48 128h8v8h-8zM64 128h8v8h-8zM88 128h8v8h-8zM104 128h8v8h-8zM112 128h8v8h-8zM120 128h8v8h-8zM152 128h8v8h-8zM160 128h8v8h-8zM0 136h8v8H0zM16 136h8v8h-8zM24 136h8v8h-8zM32 136h8v8h-8zM48 136h8v8h-8zM72 136h8v8h-8zM80 136h8v8h-8zM112 136h8v8h-8zM120 136h8v8h-8zM144 136h8v8h-8zM152 136h8v8h-8zM0 144h8v8H0zM16 144h8v8h-8zM24 144h8v8h-8zM32 144h8v8h-8zM48 144h8v8h-8zM64 144h8v8h-8zM72 144h8v8h-8zM80 144h8v8h-8zM96 144h8v8h-8zM128 144h8v8h-8zM144 144h8v8h-8zM160 144h8v8h-8zM0 152h8v8H0zM48 152h8v8h-8zM64 152h8v8h-8zM112 152h8v8h-8zM128 152h8v8h-8zM152 152h8v8h-8zM0 160h8v8H0zM8 160h8v8H8zM16 160h8v8h-8zM24 160h8v8h-8zM32 160h8v8h-8zM40 160h8v8h-8zM48 160h8v8h-8zM64 160h8v8h-8zM96 160h8v8h-8zM112 160h8v8h-8zM120 160h8v8h-8zM152 160h8v8h-8zM160 160h8v8h-8z"/>
    </g>
</svg>
